<svg xmlns="http://www.w3.org/2000/svg" width="141" height="63"><path d="M 109.036 0 C 91.383 0 77.072 14.104 77.072 31.5 C 77.072 48.896 91.383 63 109.036 63 C 126.688 63 141 48.896 141 31.5 C 141.001 14.104 126.69 0 109.036 0 Z M 118.209 42.541 L 112.21 36.63 L 112.21 45.03 L 105.863 45.03 L 105.863 36.464 L 99.866 42.373 L 95.377 37.95 L 103.6 29.846 L 96.391 29.846 L 96.391 23.591 L 105.862 23.591 L 105.862 17.972 L 112.209 17.972 L 112.209 23.591 L 121.679 23.591 L 121.679 29.846 L 114.3 29.846 L 122.694 38.117 Z M 59.634 15.757 C 55.366 8.473 48.477 3.263 40.234 1.086 C 31.991 -1.091 23.38 0.027 15.989 4.231 C 8.599 8.437 3.311 15.226 1.102 23.351 C -1.107 31.474 0.027 39.958 4.295 47.244 C 8.561 54.526 15.451 59.737 23.694 61.914 C 26.447 62.641 29.24 63 32.015 63 C 37.549 63 43.016 61.57 47.939 58.768 C 55.33 54.563 60.617 47.774 62.826 39.65 C 65.035 31.526 63.901 23.04 59.634 15.757 Z M 51.906 16.203 L 8.55 40.871 C 7.521 38.39 6.908 35.759 6.736 33.082 L 45.97 10.759 C 48.233 12.241 50.238 14.08 51.906 16.203 Z M 19.331 9.934 C 25.12 6.624 31.994 5.725 38.45 7.434 L 7.573 25.002 C 9.327 18.6 13.501 13.251 19.329 9.934 Z M 11.862 46.591 L 55.278 21.888 C 56.35 24.394 56.994 27.06 57.184 29.777 L 17.84 52.161 C 15.551 50.644 13.531 48.761 11.862 46.59 Z M 44.598 53.065 C 38.792 56.385 31.895 57.28 25.425 55.552 L 25.304 55.517 L 56.402 37.823 C 56.391 37.863 56.382 37.905 56.372 37.945 C 54.625 44.369 50.443 49.74 44.598 53.065 Z" fill="rgb(6,1,30)"></path></svg>